<?xml version="1.0" encoding="UTF-8"?>
<svg xmlns="http://www.w3.org/2000/svg" xmlns:xlink="http://www.w3.org/1999/xlink" viewBox="0 0 50 50" width="50px" height="50px">
<g id="surface232228515">
<path style=" stroke:none;fill-rule:nonzero;fill:rgb(26.274511%,38.039216%,93.333334%);fill-opacity:1;" d="M 6 4 C 4.90625 4 4 4.90625 4 6 L 4 44 C 4 45.09375 4.90625 46 6 46 L 44 46 C 45.09375 46 46 45.09375 46 44 L 46 6 C 46 4.90625 45.09375 4 44 4 Z M 6 6 L 44 6 L 44 44 L 6 44 Z M 18.585938 14 C 17.144531 14 15.992188 14.160156 15.003906 14.417969 L 15 36 L 17.464844 36 L 17.464844 26.832031 C 17.816406 26.859375 18.136719 26.863281 18.550781 26.863281 C 20.472656 26.863281 22.488281 26.0625 23.640625 24.464844 C 24.472656 23.375 24.949219 22.03125 24.949219 20.046875 C 24.949219 18.160156 24.40625 16.589844 23.382812 15.566406 C 22.265625 14.476562 20.570312 14 18.585938 14 Z M 18.976562 15.640625 C 21.726562 15.640625 22.621094 17.621094 22.621094 19.832031 C 22.621094 22.871094 20.992188 24.472656 18.589844 24.472656 C 18.175781 24.472656 17.886719 24.4375 17.597656 24.410156 L 17.597656 15.800781 C 17.917969 15.703125 18.402344 15.640625 18.976562 15.640625 Z M 31.714844 20 C 29.226562 20 27.300781 21.769531 27.300781 24.308594 C 27.300781 26.074219 28.425781 27.421875 30.519531 28.742188 C 32.144531 29.769531 32.574219 30.605469 32.574219 31.792969 C 32.574219 33.175781 31.648438 34.042969 30.222656 34.042969 C 29.191406 34.042969 28.195312 33.589844 27.632812 33.238281 L 27 35.101562 C 27.695312 35.644531 28.992188 36 30.15625 36 C 32.808594 36 35 34.488281 35 31.375 C 35 29.222656 33.539062 27.773438 31.683594 26.617188 C 30.089844 25.589844 29.691406 24.980469 29.691406 23.953125 C 29.691406 22.925781 30.386719 21.960938 31.75 21.960938 C 32.609375 21.960938 33.277344 22.25 33.90625 22.667969 L 34.570312 20.804688 C 33.90625 20.386719 32.980469 20 31.71875 20 Z M 31.714844 20 "/>
</g>
</svg>
