<?xml version="1.0" encoding="UTF-8"?>
<svg xmlns="http://www.w3.org/2000/svg" xmlns:xlink="http://www.w3.org/1999/xlink" viewBox="0 0 25 25" width="25px" height="25px">
<g id="surface151634076">
<path style=" stroke:none;fill-rule:nonzero;fill:rgb(65.882355%,69.803923%,81.960785%);fill-opacity:1;" d="M 4 1.503906 C 3.15625 1.503906 2.417969 1.746094 1.878906 2.183594 C 1.335938 2.621094 1.007812 3.265625 1.007812 3.972656 C 1.007812 5.34375 2.234375 6.40625 3.859375 6.46875 C 3.902344 6.484375 3.953125 6.492188 4 6.492188 C 4.875 6.492188 5.625 6.238281 6.15625 5.78125 C 6.6875 5.328125 6.996094 4.671875 6.996094 3.972656 C 6.992188 3.964844 6.992188 3.957031 6.992188 3.945312 C 6.917969 2.566406 5.6875 1.503906 4 1.503906 Z M 4 2.496094 C 5.304688 2.496094 5.949219 3.132812 6.003906 3.988281 C 6 4.402344 5.839844 4.757812 5.515625 5.03125 C 5.1875 5.308594 4.6875 5.503906 4 5.503906 C 2.699219 5.503906 1.996094 4.800781 1.996094 3.972656 C 1.996094 3.5625 2.164062 3.222656 2.5 2.949219 C 2.832031 2.679688 3.34375 2.496094 4 2.492188 Z M 1.5 7.5 C 1.222656 7.5 1 7.722656 1 8 L 1 22.5 C 1 22.777344 1.222656 23 1.5 23 L 6.5 23 C 6.777344 23 7 22.777344 7 22.5 L 7 8 C 7 7.722656 6.777344 7.5 6.5 7.5 Z M 9 7.5 C 8.722656 7.5 8.5 7.722656 8.5 8 L 8.5 22.5 C 8.5 22.777344 8.722656 23 9 23 L 14 23 C 14.277344 23 14.5 22.777344 14.5 22.5 L 14.5 14.25 C 14.5 13.277344 15.277344 12.5 16.25 12.5 C 17.222656 12.5 18 13.277344 18 14.25 L 18 22.5 C 18 22.777344 18.222656 23 18.5 23 L 23.5 23 C 23.777344 23 24 22.777344 24 22.5 L 24 14 C 24 11.9375 23.394531 10.300781 22.371094 9.1875 C 21.351562 8.074219 19.925781 7.5 18.394531 7.5 C 16.441406 7.5 15.261719 8.214844 14.5 8.800781 L 14.5 8 C 14.5 7.722656 14.277344 7.5 14 7.5 Z M 2 8.5 L 6 8.5 L 6 22 L 2 22 Z M 9.5 8.5 L 13.5 8.5 L 13.5 9.820312 C 13.5 10.027344 13.628906 10.210938 13.820312 10.285156 C 14.015625 10.359375 14.234375 10.308594 14.371094 10.152344 C 14.371094 10.152344 15.855469 8.5 18.394531 8.5 C 19.679688 8.5 20.808594 8.960938 21.632812 9.863281 C 22.460938 10.765625 23 12.128906 23 14 L 23 22 L 19 22 L 19 14.25 C 19 14.179688 18.984375 14.109375 18.957031 14.042969 C 18.847656 12.632812 17.691406 11.5 16.25 11.5 C 14.738281 11.5 13.5 12.738281 13.5 14.25 L 13.5 22 L 9.5 22 Z M 9.5 8.5 "/>
</g>
</svg>
