<?xml version="1.0" encoding="UTF-8"?>
<svg xmlns="http://www.w3.org/2000/svg" xmlns:xlink="http://www.w3.org/1999/xlink" viewBox="0 0 64 64" width="64px" height="64px">
<g id="surface232258654">
<path style=" stroke:none;fill-rule:nonzero;fill:rgb(3.137255%,39.215687%,77.254903%);fill-opacity:1;" d="M 35.136719 2.386719 C 34.917969 2.378906 34.699219 2.390625 34.480469 2.429688 L 5.304688 7.578125 C 3.390625 7.917969 2 9.574219 2 11.515625 L 2 50.484375 C 2 52.425781 3.390625 54.085938 5.304688 54.421875 L 34.480469 59.570312 C 34.652344 59.601562 34.828125 59.613281 35 59.613281 C 35.699219 59.613281 36.382812 59.371094 36.929688 58.910156 C 37.609375 58.34375 38 57.503906 38 56.613281 L 38 50 L 59 50 C 60.652344 50 62 48.652344 62 47 L 62 15 C 62 13.347656 60.652344 12 59 12 L 38 12 L 38 5.382812 C 38 4.496094 37.609375 3.65625 36.929688 3.085938 C 36.417969 2.65625 35.789062 2.414062 35.136719 2.386719 Z M 35.101562 4.386719 C 35.355469 4.410156 35.542969 4.53125 35.640625 4.617188 C 35.777344 4.730469 36 4.980469 36 5.382812 L 36 56.613281 C 36 57.019531 35.777344 57.269531 35.640625 57.382812 C 35.507812 57.496094 35.21875 57.671875 34.828125 57.601562 L 5.652344 52.453125 C 4.695312 52.285156 4 51.457031 4 50.484375 L 4 11.515625 C 4 10.542969 4.695312 9.714844 5.652344 9.546875 L 34.828125 4.398438 C 34.925781 4.378906 35.015625 4.378906 35.101562 4.386719 Z M 38 14 L 59 14 C 59.550781 14 60 14.449219 60 15 L 60 21.394531 L 43.550781 30.371094 C 42.945312 30.699219 42.226562 30.695312 41.625 30.363281 L 38 28.363281 Z M 20 20 C 16.691406 20 14 22.691406 14 26 L 14 36 C 14 39.308594 16.691406 42 20 42 C 23.308594 42 26 39.308594 26 36 L 26 26 C 26 22.691406 23.308594 20 20 20 Z M 20 22 C 22.207031 22 24 23.792969 24 26 L 24 36 C 24 38.207031 22.207031 40 20 40 C 17.792969 40 16 38.207031 16 36 L 16 26 C 16 23.792969 17.792969 22 20 22 Z M 60 23.671875 L 60 47 C 60 47.550781 59.550781 48 59 48 L 38 48 L 38 46 C 38.554688 46 39 45.550781 39 45 L 39 43 C 39 42.449219 38.554688 42 38 42 L 38 30.648438 L 40.660156 32.113281 C 41.265625 32.449219 41.929688 32.613281 42.59375 32.613281 C 43.25 32.613281 43.90625 32.453125 44.507812 32.125 Z M 43 42 C 42.445312 42 42 42.449219 42 43 L 42 45 C 42 45.550781 42.445312 46 43 46 C 43.554688 46 44 45.550781 44 45 L 44 43 C 44 42.449219 43.554688 42 43 42 Z M 48 42 C 47.445312 42 47 42.449219 47 43 L 47 45 C 47 45.550781 47.445312 46 48 46 C 48.554688 46 49 45.550781 49 45 L 49 43 C 49 42.449219 48.554688 42 48 42 Z M 53 42 C 52.445312 42 52 42.449219 52 43 L 52 45 C 52 45.550781 52.445312 46 53 46 C 53.554688 46 54 45.550781 54 45 L 54 43 C 54 42.449219 53.554688 42 53 42 Z M 58 42 C 57.445312 42 57 42.449219 57 43 L 57 45 C 57 45.550781 57.445312 46 58 46 C 58.554688 46 59 45.550781 59 45 L 59 43 C 59 42.449219 58.554688 42 58 42 Z M 58 42 "/>
</g>
</svg>
