<?xml version="1.0" encoding="UTF-8"?><svg xmlns="http://www.w3.org/2000/svg" xmlns:xlink="http://www.w3.org/1999/xlink" width="1190.25pt" zoomAndPan="magnify" viewBox="0 0 1190.25 1683.749945" height="1683.749945pt" preserveAspectRatio="xMidYMid meet" version="1.2"><defs><clipPath xml:id="clip1" id="clip1"><path d="M 12.265625 2 L 1178 2 L 1178 1683.09375 L 12.265625 1683.09375 Z M 12.265625 2 "/></clipPath></defs><g xml:id="surface1" id="surface1"><g clip-rule="nonzero" clip-path="url(#clip1)"><path style=" stroke:none;fill-rule:nonzero;fill:rgb(100%,100%,100%);fill-opacity:1;" d="M 1176.574219 795.371094 C 1174.9375 783.035156 1172.355469 770.898438 1168.828125 758.964844 C 1165.550781 747.472656 1160.988281 736.511719 1155.140625 726.085938 C 1149.292969 715.660156 1142.320312 706.050781 1134.222656 697.257812 C 1126.136719 688.917969 1117.289062 681.488281 1107.675781 674.964844 C 1098.066406 668.441406 1087.890625 662.964844 1077.152344 658.53125 C 1065.996094 653.722656 1054.546875 649.765625 1042.804688 646.652344 C 1037.382812 645.105469 1031.957031 643.554688 1026.535156 642.523438 L 1009.234375 639.425781 L 990.898438 637.359375 C 987.800781 625.738281 984.441406 614.378906 980.566406 603.019531 C 973.878906 583.210938 965.84375 563.96875 956.457031 545.289062 C 947.070312 526.605469 936.429688 508.671875 924.527344 491.480469 C 920.914062 486.058594 917.296875 480.636719 913.425781 475.472656 L 909.292969 469.535156 L 889.40625 443.714844 C 884.5 437.261719 878.820312 431.066406 873.394531 424.867188 C 867.972656 418.671875 863.839844 413.507812 858.933594 408.085938 L 838.273438 385.367188 C 831.820312 378.394531 825.105469 371.683594 818.648438 364.96875 L 803.152344 349.476562 L 785.078125 332.179688 C 779.910156 327.273438 774.746094 322.367188 769.324219 317.71875 C 772.679688 311.007812 775.78125 304.035156 779.136719 297.324219 C 782.492188 290.609375 786.109375 281.316406 789.726562 273.3125 L 794.375 262.210938 C 795.921875 258.078125 797.988281 253.945312 799.539062 249.816406 C 801.085938 245.683594 805.476562 234.324219 808.058594 226.578125 L 808.058594 224.511719 L 810.382812 216.769531 C 810.382812 213.410156 812.707031 210.054688 813.742188 206.957031 C 814.773438 203.859375 813.742188 203.082031 815.292969 201.277344 C 816.839844 199.46875 817.617188 192.757812 818.648438 188.625 C 819.679688 184.496094 820.714844 181.136719 821.488281 177.523438 L 824.589844 160.484375 C 824.589844 156.867188 825.878906 153.253906 826.394531 149.378906 C 826.914062 145.507812 827.6875 139.3125 828.203125 134.148438 C 829.496094 121.410156 829.496094 108.671875 828.203125 95.933594 C 826.773438 84.402344 823.757812 73.300781 819.164062 62.628906 C 816.734375 57.230469 813.800781 52.121094 810.367188 47.300781 C 806.933594 42.476562 803.066406 38.035156 798.761719 33.96875 C 790.96875 26.785156 782.359375 20.761719 772.9375 15.898438 C 767.691406 13.460938 762.316406 11.355469 756.8125 9.582031 C 751.308594 7.808594 745.714844 6.375 740.035156 5.289062 C 734.351562 4.199219 728.628906 3.460938 722.855469 3.078125 C 717.085938 2.691406 711.3125 2.664062 705.535156 2.988281 C 693.679688 3.675781 681.972656 5.394531 670.414062 8.152344 C 662.902344 9.824219 655.5 11.890625 648.207031 14.347656 C 636.585938 18.21875 625.222656 21.835938 614.117188 26.742188 C 592.203125 36.085938 571.628906 47.789062 552.398438 61.855469 C 537.472656 73.238281 523.527344 85.714844 510.5625 99.292969 C 505.140625 105.230469 499.714844 110.652344 494.550781 116.589844 L 490.417969 114.78125 C 479.671875 110.140625 468.652344 106.265625 457.363281 103.164062 C 445.984375 99.925781 434.390625 98 422.578125 97.390625 C 410.761719 96.78125 399.03125 97.5 387.378906 99.550781 C 375.234375 101.628906 363.527344 105.15625 352.257812 110.136719 C 342.125 114.535156 332.398438 119.699219 323.078125 125.628906 C 303.859375 138.980469 286.558594 154.472656 271.167969 172.101562 C 243.203125 203.671875 219.359375 238.097656 199.636719 275.375 C 191.371094 291.125 183.109375 306.617188 175.875 322.625 L 160.125 356.964844 C 158.058594 361.871094 155.734375 366.777344 153.925781 371.941406 L 139.464844 406.539062 C 137.140625 412.992188 134.558594 419.1875 132.492188 425.386719 L 132.492188 426.675781 L 113.898438 484.769531 C 113.898438 487.867188 112.347656 491.222656 111.316406 494.320312 C 109.507812 501.550781 107.699219 508.78125 105.632812 516.007812 C 103.566406 523.238281 101.761719 531.242188 99.695312 538.730469 C 99.695312 541.3125 98.144531 544.152344 97.628906 546.734375 L 89.105469 584.171875 C 87.039062 592.691406 84.972656 601.46875 83.425781 609.992188 C 80.066406 628.0625 76.195312 645.878906 73.351562 663.953125 C 70.511719 682.023438 67.15625 700.097656 64.574219 717.398438 C 63.023438 730.046875 61.214844 743.214844 59.410156 755.609375 C 59.410156 761.289062 57.601562 766.710938 57.085938 772.132812 L 49.335938 839.519531 C 47.527344 856.042969 45.980469 872.570312 44.429688 889.09375 C 42.878906 905.617188 41.589844 920.59375 40.296875 936.601562 L 37.199219 975.585938 C 37.199219 981.523438 37.199219 987.722656 37.199219 993.917969 C 37.199219 1005.277344 35.90625 1016.378906 35.390625 1027.742188 C 35.390625 1033.9375 35.390625 1040.132812 35.390625 1046.332031 C 35.390625 1052.527344 35.390625 1051.234375 35.390625 1053.816406 C 35.390625 1063.113281 35.390625 1072.40625 35.390625 1081.703125 C 35.390625 1090.996094 35.390625 1094.09375 35.390625 1100.035156 C 35.261719 1101.925781 35.261719 1103.820312 35.390625 1105.714844 L 32.550781 1139.019531 C 32.425781 1141 32.425781 1142.980469 32.550781 1144.957031 C 32.550781 1148.058594 30.742188 1151.15625 29.96875 1154.253906 C 29.195312 1157.351562 28.160156 1160.449219 27.386719 1163.808594 C 26.609375 1167.164062 25.0625 1174.652344 24.027344 1179.816406 C 22.996094 1184.976562 22.480469 1188.335938 21.703125 1192.464844 C 19.898438 1201.761719 18.605469 1210.796875 17.3125 1220.09375 C 17.3125 1223.964844 17.3125 1227.835938 17.3125 1231.710938 C 17.3125 1235.582031 17.3125 1239.714844 17.3125 1243.84375 C 12.925781 1262.953125 12.925781 1281.542969 12.925781 1299.871094 C 12.925781 1306.070312 12.925781 1312.265625 12.925781 1318.203125 C 12.925781 1324.140625 12.925781 1324.660156 12.925781 1328.015625 C 12.925781 1331.371094 12.925781 1338.859375 12.925781 1344.539062 C 12.925781 1350.21875 12.925781 1352.285156 14.472656 1356.15625 L 16.023438 1369.324219 C 16.023438 1374.488281 17.574219 1379.394531 18.605469 1384.558594 C 20.15625 1394.113281 21.960938 1403.664062 24.027344 1413.476562 C 26.09375 1423.285156 28.160156 1430.773438 30.484375 1439.292969 C 32.808594 1447.816406 35.390625 1455.820312 37.972656 1465.113281 C 39.265625 1468.988281 40.816406 1472.601562 42.105469 1476.472656 L 46.753906 1488.867188 C 56.070312 1512.523438 67.949219 1534.8125 82.390625 1555.738281 C 96.71875 1575.273438 113.160156 1592.832031 131.714844 1608.410156 C 144.683594 1620.164062 158.660156 1630.558594 173.652344 1639.59375 C 188.640625 1648.628906 204.359375 1656.136719 220.8125 1662.113281 C 229.234375 1665.375 237.84375 1668.042969 246.636719 1670.117188 L 263.164062 1673.730469 C 265.746094 1673.730469 268.328125 1675.023438 270.910156 1675.28125 L 287.695312 1677.863281 L 295.445312 1677.863281 L 311.972656 1679.410156 C 315.328125 1679.410156 318.6875 1679.410156 322.042969 1679.410156 L 337.539062 1679.410156 C 340.636719 1679.410156 343.996094 1679.410156 347.351562 1679.410156 L 361.554688 1679.410156 C 365.8125 1680.34375 370.117188 1680.945312 374.46875 1681.21875 L 387.636719 1679.667969 C 391.511719 1679.667969 395.644531 1679.667969 399.515625 1678.121094 L 425.339844 1673.730469 L 437.738281 1670.890625 L 441.609375 1670.890625 L 455.039062 1673.988281 L 464.59375 1675.796875 C 472.34375 1675.796875 480.347656 1678.894531 488.351562 1679.929688 C 496.359375 1680.960938 505.398438 1682.25 514.175781 1683.027344 L 541.550781 1685.089844 L 607.921875 1685.089844 L 631.679688 1682.769531 C 635.5 1682.503906 639.289062 1681.988281 643.042969 1681.21875 L 664.734375 1677.605469 C 669.441406 1676.730469 674.089844 1675.609375 678.679688 1674.246094 C 686.425781 1672.441406 694.175781 1670.890625 701.921875 1668.308594 L 729.554688 1659.015625 C 732.910156 1659.015625 736.011719 1656.433594 739.109375 1655.140625 L 755.121094 1648.429688 C 761.835938 1645.589844 768.550781 1642.230469 775.261719 1638.875 L 796.179688 1628.03125 L 822.003906 1613.316406 C 825.003906 1611.660156 827.847656 1609.765625 830.527344 1607.636719 L 844.988281 1598.082031 C 851.1875 1593.949219 856.867188 1589.304688 862.808594 1584.914062 C 868.746094 1580.523438 874.6875 1575.621094 880.367188 1570.714844 L 902.0625 1551.351562 L 911.359375 1542.054688 L 924.011719 1529.144531 C 929.4375 1523.722656 934.601562 1517.785156 939.765625 1512.105469 C 944.929688 1506.425781 949.835938 1500.746094 954.484375 1495.066406 L 966.621094 1480.089844 C 968.6875 1477.25 971.011719 1474.925781 973.078125 1472.085938 L 989.089844 1448.847656 C 993.480469 1442.910156 997.355469 1436.453125 1001.226562 1430.257812 C 1005.101562 1424.0625 1010.523438 1416.058594 1014.65625 1408.570312 C 1018.789062 1401.082031 1025.503906 1388.949219 1030.667969 1379.136719 C 1035.832031 1369.324219 1038.15625 1364.679688 1041.773438 1357.449219 L 1051.328125 1337.828125 C 1055.976562 1327.757812 1060.367188 1317.945312 1065.015625 1308.132812 C 1069.664062 1298.324219 1072.246094 1291.351562 1075.859375 1282.316406 C 1079.476562 1273.277344 1081.542969 1269.148438 1084.125 1262.691406 C 1086.707031 1256.238281 1091.871094 1244.105469 1095.488281 1234.550781 C 1101.683594 1218.542969 1107.625 1202.535156 1113.5625 1186.269531 C 1116.40625 1178.007812 1119.503906 1170.003906 1122.085938 1162 C 1124.667969 1153.996094 1129.058594 1140.828125 1132.414062 1130.5 C 1135.773438 1120.171875 1137.582031 1113.460938 1140.164062 1104.679688 C 1142.746094 1095.902344 1144.554688 1089.707031 1146.621094 1082.21875 C 1148.683594 1074.730469 1151.527344 1064.921875 1153.59375 1056.398438 L 1160.566406 1025.160156 C 1160.566406 1022.320312 1160.566406 1019.222656 1162.371094 1016.121094 C 1164.179688 1013.023438 1164.695312 1003.988281 1165.730469 997.792969 C 1166.761719 991.59375 1168.3125 981.265625 1169.601562 971.972656 C 1170.894531 962.675781 1172.1875 955.707031 1172.960938 947.445312 C 1173.734375 939.183594 1175.285156 929.886719 1176.058594 921.625 C 1176.835938 913.363281 1176.058594 908.972656 1177.351562 902.777344 C 1178.640625 896.582031 1177.351562 894.773438 1177.351562 890.902344 L 1177.351562 875.152344 C 1177.351562 871.019531 1177.351562 866.632812 1177.351562 862.5 C 1177.351562 853.722656 1177.351562 844.683594 1177.351562 836.679688 C 1177.921875 822.894531 1177.664062 809.125 1176.574219 795.371094 Z M 782.753906 358.515625 C 788.949219 364.453125 795.148438 369.875 800.828125 376.070312 L 823.554688 399.824219 C 828.976562 405.246094 834.402344 411.183594 839.566406 417.121094 C 850.929688 429.515625 861.773438 442.941406 872.621094 455.078125 L 888.632812 475.214844 C 890.582031 477.339844 892.390625 479.578125 894.054688 481.929688 L 899.21875 489.15625 L 909.550781 504.390625 C 911.417969 506.695312 913.140625 509.105469 914.714844 511.621094 C 926.261719 529.535156 936.59375 548.121094 945.703125 567.390625 C 954.589844 586.0625 962.164062 605.257812 968.429688 624.964844 L 971.53125 635.808594 L 956.550781 635.808594 C 948.804688 635.808594 940.796875 635.808594 932.792969 635.808594 L 910.066406 635.808594 C 902.367188 636.199219 894.707031 636.976562 887.082031 638.132812 L 869.265625 640.714844 L 861.515625 642.007812 L 831.820312 648.460938 C 823.296875 650.269531 814.773438 653.109375 805.996094 655.433594 L 796.957031 658.015625 L 785.078125 662.144531 C 778.105469 664.726562 770.613281 667.050781 763.640625 670.148438 L 746.855469 677.121094 L 737.558594 681.25 L 711.734375 693.644531 C 704.761719 697 698.304688 700.875 691.332031 704.746094 C 684.359375 708.617188 678.421875 711.71875 671.964844 715.847656 L 646.140625 731.597656 L 638.394531 736.761719 C 633.746094 740.375 628.839844 743.734375 623.933594 747.089844 C 619.023438 750.445312 611.792969 755.609375 606.113281 760.257812 C 600.429688 764.902344 593.71875 769.292969 587.777344 774.199219 L 564.535156 793.046875 C 557.5625 798.726562 550.589844 804.921875 543.617188 811.121094 C 536.644531 817.316406 532.253906 821.1875 526.574219 826.613281 L 508.753906 843.136719 C 502.554688 849.332031 496.101562 855.269531 490.160156 861.46875 L 469.757812 882.898438 C 463.304688 889.609375 457.621094 896.582031 451.425781 903.292969 C 440.0625 915.945312 429.214844 929.113281 418.109375 942.539062 L 385.570312 984.105469 C 364.136719 1009.925781 342.960938 1035.746094 322.816406 1061.5625 C 302.675781 1087.382812 282.273438 1117.847656 261.613281 1145.992188 C 240.953125 1174.132812 219.519531 1202.792969 199.117188 1231.195312 L 167.871094 1272.761719 C 159.125 1285.679688 149.308594 1297.726562 138.429688 1308.910156 C 134.230469 1313.097656 129.582031 1316.710938 124.484375 1319.753906 L 121.644531 1319.753906 C 121.644531 1314.589844 119.578125 1309.425781 118.804688 1304.261719 C 118.804688 1297.03125 116.480469 1289.546875 115.449219 1282.316406 C 114.414062 1275.085938 115.449219 1274.3125 115.449219 1270.4375 C 115.449219 1266.566406 115.449219 1263.46875 114.15625 1260.113281 C 114.15625 1245.136719 111.574219 1230.160156 111.574219 1215.1875 C 111.574219 1200.210938 111.574219 1184.976562 111.574219 1170.261719 C 111.574219 1155.542969 111.574219 1141.859375 113.640625 1127.917969 L 116.222656 1092.546875 C 116.222656 1087.382812 116.222656 1082.21875 118.03125 1077.054688 C 119.835938 1071.890625 118.03125 1064.144531 120.355469 1057.949219 C 122.679688 1051.753906 122.679688 1040.652344 123.96875 1032.128906 L 126.035156 1029.804688 L 124.746094 1029.804688 L 133.265625 1021.542969 L 142.046875 1015.089844 L 152.632812 1005.792969 L 160.898438 998.566406 L 180.785156 982.558594 C 195.246094 971.457031 209.964844 960.871094 224.425781 950.027344 L 265.746094 920.335938 C 278.398438 911.296875 291.570312 902.003906 303.707031 892.449219 L 329.53125 873.601562 L 349.160156 857.851562 L 366.203125 843.910156 C 372.660156 838.488281 379.375 833.066406 385.570312 827.386719 L 409.332031 805.957031 C 415.269531 800.792969 420.949219 795.113281 426.890625 789.691406 L 462.785156 751.738281 L 482.414062 731.855469 L 497.132812 716.105469 L 514.4375 697.773438 L 535.871094 673.246094 C 546.714844 661.113281 557.046875 647.429688 567.375 635.550781 C 577.707031 623.675781 589.070312 608.441406 599.398438 594.757812 C 604.046875 588.5625 608.953125 582.363281 613.601562 575.910156 C 618.25 569.453125 624.449219 561.449219 629.613281 553.964844 L 647.433594 528.144531 L 660.601562 508.003906 C 679.972656 478.054688 697.789062 447.074219 715.867188 415.832031 C 724.128906 401.375 732.652344 386.914062 741.691406 372.199219 L 755.121094 346.378906 C 757.1875 342.507812 758.992188 338.632812 761.058594 335.019531 L 768.550781 341.730469 Z M 517.792969 120.722656 C 522.699219 115.558594 527.605469 110.136719 533.03125 104.972656 C 542.628906 95.8125 552.699219 87.203125 563.242188 79.152344 C 573.625 71.457031 584.46875 64.484375 595.78125 58.238281 C 610.09375 50.582031 624.902344 44.042969 640.199219 38.617188 L 655.179688 33.710938 C 661.804688 31.71875 668.519531 30.082031 675.324219 28.804688 L 676.613281 28.804688 C 691.464844 25.183594 706.527344 23.632812 721.804688 24.160156 C 733.367188 25.363281 744.644531 27.859375 755.636719 31.644531 C 763.757812 34.820312 771.417969 38.867188 778.621094 43.78125 C 784.050781 47.957031 789.042969 52.605469 793.597656 57.722656 C 797.007812 62.386719 800.019531 67.289062 802.636719 72.441406 C 805.363281 78.683594 807.429688 85.136719 808.835938 91.804688 C 810.648438 103.191406 811.164062 114.636719 810.382812 126.144531 C 810.382812 134.40625 808.578125 142.410156 807.542969 150.414062 C 806.511719 158.417969 805.734375 161.257812 804.703125 166.421875 C 803.671875 171.585938 802.894531 176.230469 801.605469 181.136719 L 798.503906 192.757812 C 798.625 194.304688 798.625 195.855469 798.503906 197.402344 C 796.179688 204.375 794.113281 211.347656 791.789062 218.574219 C 789.464844 225.804688 786.367188 233.292969 783.527344 240.78125 C 780.6875 248.265625 777.84375 254.722656 775.003906 261.691406 C 770.097656 274.085938 764.417969 285.960938 758.734375 298.097656 C 757.445312 300.421875 756.410156 302.488281 755.378906 304.808594 L 746.082031 296.808594 L 703.472656 261.175781 C 692.109375 251.625 680.230469 242.070312 668.609375 232.777344 L 642.785156 213.152344 C 636.328125 207.988281 629.613281 203.34375 622.898438 198.179688 C 608.695312 187.59375 594.234375 177.78125 580.03125 167.453125 C 573.316406 162.546875 566.085938 158.160156 559.113281 153.769531 C 547.492188 146.023438 535.613281 138.277344 523.214844 131.566406 L 512.113281 125.367188 C 514.695312 124.078125 516.242188 122.269531 517.792969 120.722656 Z M 491.96875 149.121094 L 498.167969 141.894531 C 511.335938 148.347656 523.992188 155.835938 536.644531 163.582031 L 562.46875 180.105469 C 575.640625 188.625 588.292969 197.921875 601.207031 205.925781 C 621.609375 221.15625 642.007812 236.390625 661.636719 252.398438 C 681.261719 268.40625 703.988281 286.738281 724.390625 304.035156 C 731.363281 309.972656 738.335938 315.914062 744.789062 321.851562 C 741.347656 328.734375 737.730469 335.707031 733.945312 342.765625 C 729.8125 350.511719 725.679688 358.253906 721.289062 366 C 716.898438 373.746094 711.21875 383.558594 706.3125 391.820312 C 697.789062 407.3125 688.75 422.285156 680.488281 437.519531 C 672.222656 452.753906 662.925781 467.210938 654.664062 481.929688 C 641.234375 502.84375 628.839844 523.496094 613.34375 543.378906 C 605.339844 554.480469 597.332031 565.324219 589.070312 576.167969 L 563.242188 609.730469 C 552.65625 623.417969 541.292969 636.84375 529.929688 650.011719 L 515.46875 667.050781 C 510.046875 672.988281 504.878906 679.183594 499.199219 685.125 L 476.992188 709.136719 L 459.945312 726.433594 C 448.582031 738.050781 437.21875 749.15625 425.597656 760.515625 L 398.226562 786.332031 C 388.414062 795.371094 378.597656 804.40625 368.269531 812.152344 C 357.9375 819.898438 354.066406 824.546875 346.578125 830.484375 L 322.816406 852.429688 C 311.28125 861.726562 299.402344 870.761719 287.179688 879.539062 C 258.515625 900.710938 229.332031 921.367188 200.667969 942.539062 C 187.238281 952.351562 174.84375 962.417969 160.640625 972.746094 C 157.28125 975.585938 153.410156 978.425781 150.050781 981.523438 L 140.753906 989.527344 C 137.65625 992.367188 134.300781 994.949219 131.457031 997.789062 C 134.300781 982.816406 136.882812 967.839844 140.238281 952.867188 C 143.597656 937.890625 147.984375 917.234375 152.894531 901.226562 C 155.21875 892.449219 157.542969 883.671875 160.125 875.410156 L 175.617188 823.769531 L 175.617188 825.0625 L 175.617188 821.449219 C 177.941406 814.734375 180.007812 808.023438 182.332031 801.308594 C 193.179688 768.777344 205.316406 736.761719 217.96875 705.003906 C 230.625 673.246094 245.601562 636.324219 259.804688 601.726562 C 274.011719 567.132812 287.695312 535.375 302.160156 502.582031 C 316.621094 469.792969 331.339844 437.519531 346.835938 405.503906 C 354.324219 389.496094 362.070312 374.003906 369.820312 358.253906 C 377.566406 342.507812 384.796875 327.789062 392.542969 312.8125 C 400.292969 297.839844 408.296875 282.089844 416.820312 267.113281 C 421.210938 259.109375 425.339844 251.105469 429.988281 243.363281 L 443.675781 220.640625 C 449.875 211.085938 456.074219 201.535156 462.527344 192.238281 L 475.183594 174.425781 C 478.539062 169.777344 482.15625 165.386719 485.769531 160.742188 C 489.386719 156.09375 489.902344 152.738281 493 149.121094 Z M 51.402344 1070.601562 C 51.402344 1063.886719 51.402344 1057.175781 51.402344 1050.460938 C 51.402344 1031.097656 53.210938 1011.734375 54.5 992.367188 C 54.5 980.75 56.308594 969.132812 57.34375 957.511719 C 58.375 945.894531 58.632812 936.082031 59.925781 925.496094 C 61.992188 904.066406 63.796875 882.636719 65.863281 861.46875 C 67.414062 845.460938 69.222656 829.710938 71.027344 813.703125 C 72.835938 797.695312 74.644531 781.429688 76.96875 765.164062 L 82.910156 725.917969 C 82.910156 719.722656 84.457031 713.78125 85.492188 707.84375 C 88.332031 690.027344 90.65625 672.214844 94.011719 654.65625 C 97.371094 637.101562 100.46875 619.285156 104.34375 601.726562 L 112.863281 564.550781 C 112.863281 559.128906 115.1875 553.707031 116.480469 548.28125 L 131.976562 490.449219 L 131.976562 488.898438 C 138.171875 470.308594 144.113281 451.71875 149.792969 432.871094 C 151.601562 427.707031 153.925781 422.285156 155.992188 417.121094 C 159.605469 407.054688 163.480469 396.984375 167.355469 386.914062 C 168.902344 383.042969 170.195312 378.910156 172.003906 375.039062 L 182.589844 351.800781 L 194.210938 325.980469 L 200.667969 312.8125 C 205.316406 303.777344 210.222656 294.742188 214.871094 285.445312 C 219.519531 276.152344 226.234375 264.792969 232.433594 254.722656 C 251.273438 223.609375 273.570312 195.210938 299.316406 169.519531 C 313.226562 156.183594 328.550781 144.734375 345.285156 135.179688 L 343.734375 135.179688 L 345.542969 135.179688 C 357.695312 128.746094 370.433594 123.839844 383.765625 120.464844 C 396.988281 117.792969 410.332031 116.933594 423.792969 117.882812 C 439.820312 119.566406 455.402344 123.183594 470.535156 128.726562 L 480.089844 132.597656 L 475.441406 138.277344 L 464.335938 152.480469 L 458.914062 159.707031 L 449.617188 172.875 L 443.160156 183.71875 L 427.664062 207.472656 C 422.5 215.476562 417.851562 223.996094 412.6875 233.292969 C 407.523438 242.585938 404.164062 248.523438 400.035156 256.011719 C 395.902344 263.5 391.769531 271.246094 387.636719 278.992188 C 379.375 294.484375 371.367188 310.234375 363.363281 325.722656 C 355.355469 341.214844 348.125 357.222656 340.121094 372.972656 C 332.113281 388.722656 325.402344 403.179688 318.167969 418.671875 C 287.953125 483.476562 259.03125 547.765625 232.175781 615.929688 C 219.519531 648.460938 205.058594 680.476562 191.886719 714.039062 C 178.71875 747.605469 166.0625 781.945312 155.476562 817.316406 L 147.210938 843.136719 C 139.464844 867.40625 133.007812 892.191406 126.808594 916.976562 C 120.613281 941.765625 116.222656 966.035156 111.058594 991.078125 L 105.632812 1022.0625 L 100.46875 1027.484375 C 94.53125 1033.9375 88.847656 1040.648438 83.167969 1047.363281 C 76.957031 1054.992188 71.277344 1062.996094 66.121094 1071.375 C 60.515625 1079.667969 55.4375 1088.277344 50.886719 1097.195312 C 51.144531 1088.933594 51.144531 1079.894531 51.402344 1070.601562 Z M 57.601562 1218.027344 L 57.601562 1211.570312 C 57.601562 1202.277344 55.792969 1192.980469 55.019531 1183.6875 C 54.242188 1174.390625 53.726562 1162.515625 52.953125 1151.671875 C 52.953125 1151.671875 52.953125 1149.347656 52.953125 1148.058594 C 54.761719 1142.636719 56.308594 1137.214844 58.375 1132.050781 C 63.976562 1117.273438 70.777344 1103.074219 78.777344 1089.449219 C 84.597656 1080.433594 90.964844 1071.828125 97.886719 1063.628906 L 101.242188 1059.5 C 94.960938 1109.132812 92.03125 1158.960938 92.464844 1208.988281 C 92.464844 1222.15625 92.464844 1234.808594 94.011719 1248.234375 C 94.84375 1251.464844 95.445312 1254.734375 95.820312 1258.046875 C 96.078125 1260.714844 96.078125 1263.382812 95.820312 1266.050781 C 97.371094 1282.230469 99.695312 1298.496094 102.792969 1314.847656 C 102.792969 1316.398438 102.792969 1318.203125 102.792969 1319.753906 L 98.144531 1317.6875 L 96.078125 1315.878906 L 92.207031 1312.265625 C 91.847656 1310.378906 91.242188 1308.570312 90.398438 1306.84375 L 88.074219 1304.003906 L 88.074219 1300.648438 C 88.074219 1298.582031 85.75 1296.773438 84.457031 1294.707031 C 83.167969 1292.644531 81.617188 1289.285156 80.585938 1286.445312 C 79.550781 1283.605469 75.675781 1274.828125 73.613281 1268.890625 C 71.546875 1262.953125 71.804688 1263.210938 70.769531 1260.113281 C 69.738281 1257.011719 64.574219 1251.847656 64.574219 1247.71875 C 62.992188 1242.574219 61.960938 1237.328125 61.472656 1231.96875 C 61.472656 1229.128906 61.472656 1226.289062 61.472656 1223.449219 C 60.3125 1221.546875 59.023438 1219.742188 57.601562 1218.027344 Z M 384.023438 1656.949219 C 380.148438 1656.949219 376.273438 1656.949219 372.144531 1658.496094 L 358.199219 1658.496094 C 354.410156 1658.75 350.621094 1658.75 346.835938 1658.496094 L 321.011719 1658.496094 L 299.574219 1656.691406 C 292.601562 1656.691406 285.890625 1654.882812 279.175781 1653.851562 C 272.460938 1652.816406 266.519531 1651.527344 260.066406 1649.976562 C 253.609375 1648.429688 253.09375 1649.976562 249.734375 1647.652344 C 240.953125 1645.328125 232.175781 1642.746094 223.910156 1639.648438 C 202.734375 1631.53125 182.9375 1620.859375 164.515625 1607.632812 C 145.34375 1593.242188 128.125 1576.804688 112.863281 1558.320312 C 96.957031 1538.4375 83.699219 1516.921875 73.09375 1493.773438 C 70.253906 1487.835938 67.671875 1481.636719 65.347656 1475.441406 C 63.023438 1469.246094 61.214844 1464.339844 59.410156 1458.917969 C 57.601562 1453.496094 54.242188 1442.910156 51.660156 1434.90625 C 49.078125 1426.902344 47.527344 1418.640625 45.464844 1410.636719 C 45.464844 1407.277344 43.914062 1403.664062 43.140625 1400.308594 L 40.816406 1388.949219 C 38.75 1381.460938 38.75 1371.390625 36.425781 1362.355469 L 34.101562 1343.765625 C 34.101562 1339.117188 34.101562 1334.46875 34.101562 1329.824219 C 34.101562 1325.175781 34.101562 1321.300781 34.101562 1316.914062 C 34.101562 1312.523438 34.101562 1303.746094 34.101562 1297.289062 C 34.101562 1290.835938 34.101562 1278.960938 34.101562 1269.921875 C 34.101562 1260.886719 35.390625 1249.785156 36.167969 1239.972656 C 36.167969 1235.066406 36.167969 1229.902344 37.972656 1224.996094 C 39.78125 1220.09375 37.972656 1219.316406 37.972656 1216.476562 C 37.972656 1219.316406 37.972656 1222.15625 37.972656 1224.738281 C 37.792969 1231.609375 38.398438 1238.40625 39.78125 1245.136719 C 39.78125 1247.460938 41.074219 1250.042969 41.847656 1252.625 L 43.398438 1257.53125 C 44.359375 1260.347656 45.480469 1263.101562 46.753906 1265.792969 C 48.5625 1270.957031 50.628906 1275.859375 52.695312 1280.507812 L 55.792969 1286.703125 C 55.792969 1289.285156 58.117188 1291.867188 59.410156 1294.707031 C 61.828125 1299.582031 64.496094 1304.316406 67.414062 1308.910156 C 69.480469 1312.265625 71.804688 1315.363281 73.871094 1318.460938 C 74.773438 1319.625 75.804688 1320.65625 76.96875 1321.558594 L 78.519531 1322.851562 C 80.214844 1325.019531 82.109375 1327 84.199219 1328.789062 C 88.296875 1332.441406 92.859375 1335.367188 97.886719 1337.566406 C 100.957031 1338.953125 104.140625 1339.984375 107.441406 1340.667969 C 107.441406 1344.539062 108.992188 1348.152344 110.023438 1351.769531 L 113.898438 1366.484375 C 116.222656 1375.265625 118.804688 1384.300781 121.644531 1392.304688 C 121.644531 1395.660156 123.96875 1399.015625 125.003906 1402.632812 C 126.035156 1406.246094 127.84375 1411.152344 129.394531 1415.28125 C 130.941406 1419.414062 135.847656 1431.808594 139.464844 1439.554688 C 143.078125 1447.296875 144.628906 1450.140625 146.953125 1455.5625 C 149.277344 1460.984375 150.308594 1461.5 151.859375 1464.339844 C 153.410156 1467.179688 155.734375 1471.828125 157.800781 1475.183594 C 159.867188 1478.539062 163.480469 1484.21875 166.578125 1488.609375 C 169.679688 1493 176.394531 1502.550781 181.558594 1509.265625 L 190.082031 1519.074219 C 192.664062 1522.433594 195.503906 1525.789062 198.34375 1528.886719 L 208.414062 1538.957031 C 210.609375 1541.492188 212.933594 1543.902344 215.386719 1546.183594 L 227.527344 1557.289062 C 229.554688 1559.402344 231.707031 1561.378906 233.980469 1563.226562 C 240.953125 1568.90625 247.925781 1575.101562 255.15625 1580.523438 L 256.707031 1580.523438 L 272.203125 1592.144531 L 274.011719 1593.433594 L 271.945312 1591.882812 L 283.046875 1599.371094 L 295.960938 1607.632812 L 308.613281 1614.863281 L 318.945312 1620.800781 L 332.890625 1627.773438 L 342.960938 1632.679688 L 368.785156 1643.265625 L 378.082031 1646.878906 L 393.835938 1652.558594 Z M 444.453125 1645.847656 L 438.769531 1645.847656 C 435.355469 1645.316406 432 1644.542969 428.699219 1643.523438 L 407.265625 1637.066406 C 397.191406 1633.96875 387.378906 1630.097656 377.566406 1626.480469 L 351.742188 1615.894531 L 341.671875 1610.734375 L 327.726562 1604.019531 L 317.394531 1598.082031 L 304.742188 1590.851562 C 301.125 1588.785156 297.769531 1586.464844 294.410156 1584.140625 L 283.308594 1576.910156 L 281.757812 1577.941406 L 283.046875 1577.941406 L 265.230469 1564.773438 L 267.039062 1564.773438 L 265.746094 1564.773438 C 263.164062 1562.96875 260.839844 1560.644531 258.257812 1558.578125 L 246.636719 1549.027344 C 244.101562 1546.921875 241.691406 1544.683594 239.40625 1542.3125 L 228.300781 1532.242188 C 225.976562 1530.175781 223.652344 1527.597656 221.328125 1525.273438 L 211.515625 1514.945312 C 208.933594 1512.363281 206.609375 1509.265625 204.023438 1506.425781 L 197.828125 1500.484375 C 195.761719 1497.644531 193.4375 1494.804688 191.371094 1491.707031 C 189.160156 1489.152344 187.097656 1486.484375 185.171875 1483.703125 L 179.492188 1474.667969 C 177.683594 1471.828125 175.617188 1468.988281 173.8125 1465.886719 L 167.871094 1457.109375 C 167.871094 1454.011719 165.289062 1451.171875 163.996094 1448.847656 C 162.707031 1446.523438 158.316406 1437.230469 155.734375 1431.550781 L 148.761719 1414.25 C 146.953125 1409.601562 145.402344 1404.4375 143.597656 1399.535156 L 138.949219 1385.851562 C 137.398438 1380.429688 135.589844 1375.007812 134.300781 1369.582031 L 128.875 1349.960938 C 128.875 1347.378906 128.875 1344.796875 127.070312 1342.214844 C 132.578125 1340.0625 137.570312 1337.050781 142.046875 1333.179688 C 154.234375 1323.40625 164.824219 1312.132812 173.8125 1299.355469 C 183.625 1286.1875 193.179688 1273.539062 202.734375 1259.335938 L 265.746094 1174.390625 C 285.890625 1146.765625 305.515625 1118.367188 325.917969 1090.738281 C 335.988281 1077.3125 346.058594 1063.628906 356.390625 1050.460938 C 366.71875 1037.292969 379.375 1021.542969 390.996094 1007.34375 C 413.203125 981.523438 435.414062 953.640625 457.878906 927.304688 C 468.46875 914.910156 479.316406 902.777344 490.675781 890.902344 C 496.359375 884.703125 502.039062 878.507812 507.980469 872.570312 L 527.347656 853.980469 L 539.226562 842.878906 L 550.589844 832.550781 L 572.28125 813.703125 L 589.585938 799.5 C 595.523438 794.597656 601.207031 789.949219 607.144531 785.558594 L 622.125 774.199219 C 624.449219 772.390625 626.773438 770.324219 629.097656 768.777344 L 654.921875 751.476562 C 661.117188 747.347656 667.574219 743.472656 674.03125 739.601562 C 680.488281 735.730469 686.167969 731.855469 692.367188 728.5 L 715.351562 715.589844 L 744.015625 700.097656 L 757.703125 694.417969 L 773.714844 687.449219 L 787.402344 682.542969 L 803.929688 676.863281 L 818.390625 672.730469 L 834.144531 668.339844 L 831.820312 668.339844 L 851.960938 663.953125 C 856.648438 662.757812 861.382812 661.808594 866.164062 661.113281 L 890.957031 658.789062 L 946.738281 658.789062 C 956.808594 658.789062 966.621094 658.789062 976.695312 658.789062 L 981.34375 681.507812 L 985.992188 713.265625 C 988.75 732.277344 990.472656 751.386719 991.15625 770.585938 C 991.15625 777.8125 991.15625 784.785156 991.15625 792.015625 C 991.15625 799.242188 991.15625 800.535156 991.15625 804.664062 L 991.15625 817.832031 L 989.605469 847.007812 C 989.605469 851.140625 989.605469 855.527344 989.605469 859.660156 C 988.316406 869.988281 987.28125 880.054688 985.992188 890.382812 C 985.992188 893.480469 985.992188 896.324219 984.441406 899.421875 L 981.34375 918.011719 C 981.34375 925.238281 979.277344 932.210938 977.726562 939.183594 C 975.144531 951.058594 972.5625 962.933594 970.238281 974.554688 C 966.363281 992.367188 961.457031 1009.667969 957.066406 1026.191406 C 955.261719 1033.164062 953.195312 1040.132812 951.128906 1046.847656 C 949.0625 1053.558594 946.222656 1064.921875 943.378906 1072.664062 C 937.957031 1089.449219 932.792969 1106.230469 927.109375 1122.753906 C 922.980469 1134.632812 918.847656 1146.25 914.972656 1157.867188 C 911.101562 1169.488281 908.257812 1175.941406 904.902344 1184.976562 C 898.445312 1202.277344 891.730469 1219.316406 884.757812 1236.617188 C 881.917969 1243.84375 878.5625 1251.074219 875.203125 1258.304688 C 871.847656 1265.535156 869.265625 1271.988281 866.164062 1278.699219 C 863.066406 1285.414062 856.09375 1299.097656 851.1875 1309.425781 C 846.28125 1319.753906 843.441406 1323.625 839.566406 1330.855469 C 835.691406 1338.085938 832.335938 1344.023438 828.460938 1350.476562 C 824.589844 1356.933594 819.164062 1366.484375 814.257812 1374.488281 C 809.351562 1382.492188 806.253906 1386.882812 802.121094 1393.078125 C 797.988281 1399.277344 796.4375 1402.117188 793.339844 1406.503906 L 777.070312 1428.96875 C 773.972656 1433.355469 770.613281 1437.488281 767.257812 1441.617188 L 757.960938 1453.496094 L 753.828125 1458.402344 C 748.40625 1464.597656 743.242188 1470.792969 737.816406 1476.730469 C 729.296875 1486.542969 720.515625 1495.839844 711.992188 1504.875 C 703.472656 1513.910156 696.757812 1520.109375 688.492188 1527.078125 L 671.707031 1541.796875 C 667.832031 1545.410156 663.441406 1548.25 659.3125 1551.605469 C 655.179688 1554.964844 651.5625 1557.804688 647.433594 1560.644531 L 628.582031 1573.554688 L 617.21875 1580.265625 L 602.238281 1589.042969 L 579.773438 1600.664062 L 572.28125 1604.019531 L 557.046875 1610.992188 L 535.355469 1619.511719 C 528.640625 1622.351562 521.667969 1624.675781 514.953125 1627.257812 C 508.238281 1629.839844 501.007812 1632.164062 494.035156 1634.226562 L 471.566406 1641.199219 C 460.460938 1643.007812 451.941406 1645.332031 444.453125 1647.136719 Z M 1160.566406 856.820312 C 1160.566406 868.179688 1160.566406 879.539062 1160.566406 890.640625 C 1160.566406 896.839844 1160.566406 903.035156 1160.566406 909.230469 C 1160.566406 915.429688 1158.757812 925.757812 1157.980469 935.050781 C 1157.207031 944.347656 1156.175781 951.574219 1154.882812 960.871094 C 1153.59375 970.164062 1152.558594 979.460938 1150.75 988.496094 C 1148.945312 997.53125 1146.878906 1009.925781 1144.8125 1020.511719 C 1142.746094 1031.097656 1140.9375 1038.070312 1138.871094 1046.332031 C 1136.804688 1054.59375 1135 1061.820312 1132.933594 1069.566406 C 1130.867188 1077.3125 1129.058594 1085.316406 1126.476562 1093.0625 C 1123.894531 1100.808594 1121.054688 1111.394531 1118.472656 1120.429688 C 1114.082031 1133.855469 1109.949219 1146.25 1105.042969 1160.449219 C 1100.136719 1174.652344 1094.453125 1190.402344 1088.773438 1205.117188 L 1080.25 1227.839844 C 1075.859375 1238.421875 1071.726562 1249.007812 1067.597656 1259.59375 L 1058.300781 1281.28125 C 1055.199219 1288.253906 1052.359375 1295.226562 1049.003906 1302.195312 C 1045.644531 1309.167969 1039.707031 1322.851562 1034.800781 1332.921875 C 1029.894531 1342.992188 1027.308594 1348.152344 1023.695312 1355.640625 C 1020.078125 1363.128906 1017.238281 1368.550781 1013.625 1375.007812 L 999.417969 1400.824219 L 987.796875 1419.15625 L 978.761719 1433.355469 L 961.972656 1456.851562 C 958.617188 1461.5 954.742188 1465.886719 951.128906 1470.535156 L 941.054688 1482.929688 C 940.015625 1484.367188 938.894531 1485.746094 937.699219 1487.058594 L 916.78125 1505.648438 C 908 1515.460938 898.445312 1524.753906 889.148438 1534.050781 L 876.496094 1545.410156 L 867.199219 1553.671875 C 866.21875 1554.597656 865.183594 1555.457031 864.097656 1556.253906 L 849.121094 1568.132812 L 840.855469 1574.585938 L 839.308594 1577.941406 L 823.554688 1588.527344 C 819.421875 1591.109375 815.550781 1594.207031 811.417969 1596.53125 C 802.121094 1602.210938 792.824219 1607.375 783.269531 1612.796875 L 754.085938 1627.257812 C 749.4375 1629.582031 744.789062 1631.128906 740.398438 1632.9375 L 723.871094 1639.648438 L 720 1639.648438 L 709.925781 1643.265625 L 693.398438 1648.6875 L 689.269531 1648.6875 L 678.679688 1651.527344 L 664.476562 1654.882812 L 649.238281 1657.464844 L 638.910156 1659.273438 L 634.777344 1659.273438 L 618.765625 1660.820312 L 539.742188 1660.820312 L 516.761719 1659.015625 C 506.171875 1659.015625 495.324219 1656.691406 484.738281 1654.882812 L 499.972656 1649.976562 C 507.378906 1647.738281 514.867188 1645.15625 522.441406 1642.230469 C 537.160156 1637.066406 551.882812 1631.386719 566.34375 1624.675781 L 588.808594 1614.347656 C 596.558594 1610.472656 604.5625 1606.601562 612.050781 1602.210938 L 627.546875 1593.175781 C 629.871094 1591.625 632.195312 1590.59375 634.261719 1589.042969 L 648.207031 1579.492188 C 651.148438 1577.746094 653.988281 1575.855469 656.730469 1573.8125 L 678.679688 1556.769531 L 687.71875 1549.027344 L 699.339844 1538.699219 L 706.3125 1532.242188 L 718.707031 1520.109375 C 725.164062 1514.167969 731.101562 1507.714844 737.042969 1501.261719 L 744.789062 1493.257812 L 752.796875 1484.21875 L 768.550781 1465.886719 L 780.171875 1451.171875 L 786.625 1442.910156 L 803.929688 1418.898438 C 808.578125 1412.703125 812.707031 1406.246094 816.839844 1399.792969 C 820.972656 1393.335938 825.621094 1386.367188 830.011719 1379.136719 L 846.28125 1351.511719 L 850.671875 1343.765625 L 859.449219 1327.5 C 863.066406 1321.042969 866.164062 1314.847656 869.265625 1308.394531 L 878.304688 1290.320312 C 878.304688 1287.480469 881.144531 1284.640625 882.433594 1281.542969 C 889.40625 1266.308594 896.121094 1251.332031 902.320312 1235.839844 C 906.195312 1225.773438 910.324219 1215.960938 914.199219 1205.890625 C 918.074219 1195.820312 920.398438 1189.109375 923.496094 1180.074219 C 930.210938 1162.257812 936.40625 1144.183594 942.605469 1126.371094 C 948.804688 1108.554688 953.195312 1093.320312 958.617188 1076.796875 C 961.199219 1068.535156 963.523438 1060.53125 965.847656 1052.269531 L 971.269531 1033.9375 C 971.269531 1031.871094 971.269531 1029.804688 973.078125 1027.742188 L 980.828125 997.015625 C 982.375 990.5625 984.183594 984.105469 985.472656 977.652344 L 993.222656 942.023438 C 994.511719 935.566406 995.804688 929.113281 996.835938 922.65625 L 1002.261719 889.609375 C 1002.386719 887.199219 1002.386719 884.789062 1002.261719 882.378906 C 1002.261719 876.441406 1003.808594 870.503906 1004.328125 864.308594 C 1004.84375 858.109375 1006.390625 848.300781 1006.910156 840.039062 C 1007.425781 831.773438 1006.910156 816.800781 1008.714844 805.179688 C 1009.640625 787.96875 1009.640625 770.757812 1008.714844 753.542969 C 1008.714844 736.761719 1006.132812 719.722656 1003.808594 701.90625 L 999.160156 672.214844 C 999.160156 666.015625 996.835938 659.820312 995.546875 653.625 L 1003.550781 653.625 C 1012.257812 654.507812 1020.867188 655.972656 1029.375 658.011719 C 1039.964844 660.59375 1050.292969 663.695312 1060.625 667.308594 C 1075.945312 673.089844 1090.320312 680.660156 1103.75 690.027344 C 1112.53125 696.429688 1120.363281 703.832031 1127.25 712.234375 C 1133.566406 720.277344 1138.988281 728.882812 1143.519531 738.050781 C 1149.222656 751.367188 1153.441406 765.136719 1156.175781 779.363281 C 1156.050781 779.792969 1156.050781 780.222656 1156.175781 780.652344 L 1156.175781 779.363281 C 1157.722656 787.625 1158.757812 796.144531 1159.53125 805.183594 C 1160.304688 814.21875 1159.53125 821.964844 1159.53125 831 Z M 1160.566406 856.820312 "/></g></g></svg>